<?xml version="1.0" encoding="utf-8"?>

<!DOCTYPE svg PUBLIC "-//W3C//DTD SVG 1.1//EN" "http://www.w3.org/Graphics/SVG/1.1/DTD/svg11.dtd">
<!-- Uploaded to: SVG Repo, www.svgrepo.com, Generator: SVG Repo Mixer Tools -->
<svg height="800px" width="800px" version="1.1" id="_x32_" xmlns="http://www.w3.org/2000/svg" xmlns:xlink="http://www.w3.org/1999/xlink" 
	 viewBox="0 0 512 512"  xml:space="preserve">
<style type="text/css">
	.st0{fill:#000000;}
</style>
<g>
	<path class="st0" d="M62.956,398.443h392.076c13.193,0,23.985-10.792,23.985-23.978V98.562c0-13.193-10.792-23.977-23.985-23.977
		H62.956c-13.207,0-23.984,10.784-23.984,23.977v275.903C38.972,387.651,49.749,398.443,62.956,398.443z M70.147,105.753h377.696
		v261.509H70.147V105.753z"/>
	<path class="st0" d="M0,412.229v5.996c0,10.552,8.631,19.19,19.182,19.19h473.621c10.566,0,19.196-8.638,19.196-19.19v-5.996H0z"/>
	<path class="st0" d="M255.993,139.13c-25.722,0-49.099,10.481-65.979,27.375c-16.894,16.88-27.375,40.257-27.375,65.986
		c0,25.722,10.481,49.1,27.375,65.979c16.88,16.887,40.257,27.375,65.979,27.368c25.729,0.007,49.107-10.481,65.993-27.368
		c16.887-16.879,27.375-40.257,27.368-65.979c0.007-25.729-10.481-49.106-27.368-65.986
		C305.1,149.611,281.722,139.13,255.993,139.13z M312.946,289.438c-14.612,14.599-34.72,23.632-56.953,23.632
		c-22.219,0-42.334-9.033-56.939-23.632c-14.606-14.62-23.632-34.726-23.632-56.946c0-22.233,9.026-42.34,23.632-56.946
		c14.605-14.613,34.72-23.639,56.939-23.639c22.233,0,42.341,9.026,56.953,23.639c14.606,14.605,23.624,34.713,23.632,56.946
		C336.57,254.711,327.552,274.818,312.946,289.438z"/>
	<path class="st0" d="M255.993,161.512c-39.198,0-70.966,31.775-70.966,70.98c0,39.19,31.768,70.973,70.966,70.973
		c39.205,0,70.98-31.782,70.98-70.973C326.973,193.287,295.198,161.512,255.993,161.512z M274.32,173.116l5.805,2.112l-5.162,14.175
		l-5.799-2.105L274.32,173.116z M252.913,170.426h6.174v15.093h-6.174V170.426z M237.672,173.116l5.156,14.182l-5.798,2.105
		l-5.156-14.175L237.672,173.116z M218.469,182.968l9.698,11.562l-4.726,3.954l-9.697-11.554L218.469,182.968z M203.8,198.788
		l13.059,7.536l-3.086,5.354l-13.066-7.55L203.8,198.788z M195.416,218.67l14.853,2.62l-1.067,6.08l-14.86-2.62L195.416,218.67z
		 M194.343,240.225l14.86-2.62l1.067,6.081l-14.853,2.62L194.343,240.225z M203.792,266.194l-3.086-5.353l13.066-7.536l3.086,5.34
		L203.792,266.194z M237.672,291.86l-5.805-2.112l5.163-14.175l5.798,2.105L237.672,291.86z M259.087,294.544h-6.174v-15.086h6.174
		V294.544z M214.733,280.688l34.988-53.655l47.984-42.44l-34.996,53.656L214.733,280.688z M274.32,291.86l-5.156-14.182l5.799-2.105
		l5.156,14.175L274.32,291.86z M293.524,282.015l-9.697-11.562l4.732-3.969l9.69,11.554L293.524,282.015z M308.2,266.194
		l-13.066-7.55l3.086-5.34l13.066,7.536L308.2,266.194z M316.584,246.306l-14.86-2.62l1.073-6.081l14.852,2.62L316.584,246.306z
		 M317.65,224.751l-14.852,2.62l-1.08-6.08l14.86-2.62L317.65,224.751z M311.286,204.135l-13.066,7.543l-3.086-5.347l13.066-7.543
		L311.286,204.135z"/>
</g>
</svg>