<?xml version="1.0" standalone="no"?><svg xmlns="http://www.w3.org/2000/svg" viewBox="0 0 1440 320"><path fill="#cececf" fill-opacity="1" d="M0,64L10.4,80C20.9,96,42,128,63,122.7C83.5,117,104,75,125,80C146.1,85,167,139,188,181.3C208.7,224,230,256,250,272C271.3,288,292,288,313,282.7C333.9,277,355,267,376,240C396.5,213,417,171,438,149.3C459.1,128,480,128,501,128C521.7,128,543,128,563,138.7C584.3,149,605,171,626,181.3C647,192,668,192,689,197.3C709.6,203,730,213,751,229.3C772.2,245,793,267,814,245.3C834.8,224,856,160,877,138.7C897.4,117,918,139,939,144C960,149,981,139,1002,154.7C1022.6,171,1043,213,1064,234.7C1085.2,256,1106,256,1127,234.7C1147.8,213,1169,171,1190,170.7C1210.4,171,1231,213,1252,224C1273,235,1294,213,1315,224C1335.7,235,1357,277,1377,277.3C1398.3,277,1419,235,1430,213.3L1440,192L1440,0L1429.6,0C1419.1,0,1398,0,1377,0C1356.5,0,1336,0,1315,0C1293.9,0,1273,0,1252,0C1231.3,0,1210,0,1190,0C1168.7,0,1148,0,1127,0C1106.1,0,1085,0,1064,0C1043.5,0,1023,0,1002,0C980.9,0,960,0,939,0C918.3,0,897,0,877,0C855.7,0,835,0,814,0C793,0,772,0,751,0C730.4,0,710,0,689,0C667.8,0,647,0,626,0C605.2,0,584,0,563,0C542.6,0,522,0,501,0C480,0,459,0,438,0C417.4,0,397,0,376,0C354.8,0,334,0,313,0C292.2,0,271,0,250,0C229.6,0,209,0,188,0C167,0,146,0,125,0C104.3,0,83,0,63,0C41.7,0,21,0,10,0L0,0Z"></path></svg>